# AST/ASF file generated using VICON BodyLanguage
# -----------------------------------------------
:version 1.10
:name VICON
:units
  mass 1.0
  length 0.45
  angle deg
:documentation
   .ast/.asf automatically generated from VICON data using
   VICON BodyBuilder and BodyLanguage model FoxedUp or BRILLIANT.MOD
:root
   order TX TY TZ RX RY RZ
   axis XYZ
   position 0 0 0  
   orientation 0 0 0 
:bonedata
  begin
     id 1 
     name lhipjoint
     direction 0.623415 -0.642378 0.445763 
     length 2.49859 
     axis 0 0 0  XYZ
  end
  begin
     id 2 
     name lfemur
     direction 0.34202 -0.939693 0  
     length 6.69689  
     axis 0 0 20  XYZ
    dof rx ry rz
    limits (-160.0 20.0)
           (-70.0 70.0)
           (-60.0 70.0)
  end
  begin
     id 3 
     name ltibia
     direction 0.34202 -0.939693 0   
     length 7.37574   
     axis 0 0 20   XYZ
    dof rx
    limits (-10.0 170.0)
  end
  begin
     id 4 
     name lfoot
     direction 0.084323 -0.231675 0.969132   
     length 2.09111   
     axis -90 7.62852e-016 20   XYZ
    dof rx rz
    limits (-45.0 90.0)
           (-70.0 20.0)
  end
  begin
     id 5 
     name ltoes
     direction 1.5357e-011 -4.21957e-011 1   
     length 1.04989   
     axis -90 7.62852e-016 20   XYZ
    dof rx
    limits (-90.0 20.0)
  end
  begin
     id 6 
     name rhipjoint
     direction -0.605402 -0.653903 0.45376   
     length 2.45455  
     axis 0 0 0  XYZ 
  end
  begin
     id 7 
     name rfemur
     direction -0.34202 -0.939693 0   
     length 6.64523   
     axis 0 0 -20   XYZ
    dof rx ry rz
    limits (-160.0 20.0)
           (-70.0 70.0)
           (-70.0 60.0)
  end
  begin
     id 8 
     name rtibia
     direction -0.34202 -0.939693 0   
     length 7.3339   
     axis 0 0 -20   XYZ
    dof rx
    limits (-10.0 170.0)
 end
 begin
     id 9 
     name rfoot
     direction -0.120854 -0.332043 0.93549   
     length 2.23135  
     axis -90 -7.62852e-016 -20   XYZ
    dof rx rz
    limits (-45.0 90.0)
           (-20.0 70.0)
  end
  begin
     id 10 
     name rtoes
     direction -1.53563e-011 -4.21914e-011 1   
     length 1.10614   
     axis -90 -7.62852e-016 -20   XYZ
    dof rx
    limits (-90.0 20.0)
  end
  begin
     id 11 
     name lowerback
     direction 0.0319682 0.998615 -0.0417941   
     length 2.02718   
     axis 0 0 0   XYZ
    dof rx ry rz
    limits (-20.0 45.0)
           (-30.0 30.0)
           (-30.0 30.0)
  end
  begin
     id 12 
     name upperback
     direction 7.63181e-005 0.995808 0.0914691   
     length 1.97539   
     axis 0 0 0   XYZ
    dof rx ry rz
    limits (-20.0 45.0)
           (-30.0 30.0)
           (-30.0 30.0)
  end
  begin
     id 13 
     name thorax
     direction -0.016423 0.993627 0.111514   
     length 2.00349   
     axis 0 0 0   XYZ
    dof rx ry rz
    limits (-20.0 45.0)
           (-30.0 30.0)
           (-30.0 30.0)
  end
  begin
     id 14 
     name lowerneck
     direction -0.174763 0.981668 -0.0760716   
     length 1.71436   
     axis 0 0 0   XYZ
    dof rx ry rz
    limits (-20.0 45.0)
           (-30.0 30.0)
           (-30.0 30.0)
  end
  begin
     id 15 
     name upperneck
     direction 0.345458 0.934587 -0.0848868   
     length 1.72805   
     axis 0 0 0   XYZ
    dof rx ry rz
    limits (-20.0 45.0)
           (-30.0 30.0)
           (-30.0 30.0)
  end
  begin
     id 16
     name head
     direction 0.13001 0.989848 -0.0574291  
     length 1.767  
     axis 0 0 0   XYZ
    dof rx ry rz
    limits (-20.0 45.0)
           (-30.0 30.0)
           (-30.0 30.0)
  end
  begin
     id 17 
     name lclavicle
     direction 0.952951 0.290122 0.0878234  
     length 3.54654  
     axis 0 0 0   XYZ
    dof ry rz
    limits (-20.0 10.0)
           (0.0 20.0)
  end
  begin
     id 18 
     name lhumerus
     direction 1 -4.48957e-011 -4.56525e-028   
     length 5.19807   
     axis 180 -30 -90   XYZ
    dof rx ry rz
    limits (-60.0 90.0)
           (-90.0 90.0)
           (-90.0 90.0)
  end
  begin
     id 19
     name lradius
     direction 1 -4.48979e-011 -2.0317e-027   
     length 3.0937   
     axis 180 -30 -90   XYZ
    dof rx
    limits (-10.0 170.0)
  end
  begin
     id 20
     name lwrist
     direction 1 -4.48953e-011 -3.05809e-027   
     length 1.54685   
     axis 8.48514e-016 90 90   XYZ
    dof ry
    limits (-180.0 0.0)
 end
  begin
     id 21 
     name lhand
     direction 1 -4.48952e-011 -6.11639e-027   
     length 0.672632   
     axis 3.9013e-015 90 90   XYZ
    dof rx rz
    limits (-90.0 90.0)
           (-45.0 45.0)
  end
  begin
     id 22 
     name lfingers
     direction 1 -4.48925e-011 -1.22426e-026   
     length 0.542293   
     axis 7.80276e-015 90 90   XYZ
    dof rx
    limits (0.0 90.0)
  end
  begin
     id 23
     name lthumb
     direction 0.707107 -6.3486e-011 0.707107   
     length 0.778628   
     axis -90 45 5.37419e-014   XYZ
    dof rx rz
    limits (-45.0 45.0)
           (-45.0 45.0)
  end
  begin
     id 24 
     name rclavicle
     direction -0.960732 0.273675 -0.0457849   
     length 3.52079  
     axis 0 0 0   XYZ 
    dof ry rz
    limits (-10.0 20.0)
           (-20.0 0.0)
  end
  begin
     id 25 
     name rhumerus
     direction -1 -4.48976e-011 -1.63613e-027  
     length 5.45222   
     axis 180 30 90   XYZ
    dof rx ry rz
    limits (-90.0 60.0)
           (-90.0 90.0)
           (-90.0 90.0)
  end
  begin
     id 26 
     name rradius
     direction -1 -4.48957e-011 -7.00033e-028   
     length 3.01284   
     axis 180 30 90   XYZ
    dof rx
    limits (-10.0 170.0)
  end
  begin
     id 27 
     name rwrist
     direction -1 -4.48983e-011 -3.05543e-027   
     length 1.50642   
     axis 8.48514e-016 -90 -90   XYZ
    dof ry
    limits (-180.0 0.0)
  end
  begin
     id 28
     name rhand
     direction -1 -4.48984e-011 -6.11072e-027   
     length 0.622296   
     axis 3.9013e-015 -90 -90   XYZ
    dof rx rz
    limits (-90.0 90.0)
           (-45.0 45.0)
  end
  begin
     id 29
     name rfingers
     direction -1 -4.48865e-011 -1.22637e-026   
     length 0.501711   
     axis 7.80276e-015 -90 -90   XYZ
    dof rx
    limits (0.0 90.0)
  end
  begin
     id 30
     name rthumb
     direction -0.707107 -6.34932e-011 0.707107   
     length 0.72036   
     axis -90 -45 -5.37419e-014   XYZ
    dof rx rz
    limits (-45.0 45.0)
           (-45.0 45.0)
  end
:hierarchy
  begin
    root lhipjoint rhipjoint lowerback
    lhipjoint lfemur
    lfemur ltibia
    ltibia lfoot
    lfoot ltoes
    rhipjoint rfemur
    rfemur rtibia
    rtibia rfoot
    rfoot rtoes
    lowerback upperback
    upperback thorax
    thorax lowerneck lclavicle rclavicle
    lowerneck upperneck
    upperneck head
    lclavicle lhumerus
    lhumerus lradius
    lradius lwrist
    lwrist lhand lthumb
    lhand lfingers
    rclavicle rhumerus
    rhumerus rradius
    rradius rwrist
    rwrist rhand rthumb
    rhand rfingers
  end

#!OML:ASF H:\Not Pregnant\Project 1\Capture day 1\Session 1\non-pregnant.ASF
:FULLY-SPECIFIED
:DEGREES
209
root 3.5984 14.0827 15.1108 50.88 -12.0179 -12.4238
lowerback 24.0829 2.20678 5.0525
upperback 1.8112 4.42908 2.39543
thorax -11.2607 1.82879 -1.65407
lowerneck 14.3607 -9.47198 -28.6158
upperneck -29.6286 -12.0953 48.703
head -4.52844 -9.33665 32.7139
rclavicle -7.05686e-015 4.2689e-014
rhumerus -32.8617 -1.305 -79.4666
rradius 17.1777
rwrist 23.6577
rhand -46.9997 -7.21417
rfingers 7.12502
rthumb -19.707 -36.2352
lclavicle -7.05686e-015 4.2689e-014
lhumerus -54.7965 -10.3061 79.8353
lradius 51.3777
lwrist 0.846554
lhand -43.765 -82.4205
lfingers 7.12502
lthumb -16.5949 -53.11
rfemur -93.5084 6.76693 31.7267
rtibia 61.6658
rfoot -14.7496 15.5777
rtoes -12.4168
lfemur -98.9094 8.86794 -8.30486
ltibia 68.8277
lfoot -14.8384 0.997854
ltoes -22.7929
210
root 3.62132 14.0168 15.0622 50.9286 -12.3748 -12.6437
lowerback 24.2449 2.23923 4.91794
upperback 1.83026 4.43873 2.35789
thorax -11.3332 1.8353 -1.63028
lowerneck 14.1261 -9.43483 -28.6557
upperneck -29.6928 -11.9935 48.6504
head -4.55194 -9.25299 32.6823
rclavicle -1.98785e-014 -1.83876e-014
rhumerus -33.0171 -1.22412 -79.765
rradius 17.6478
rwrist 22.0896
rhand -48.6126 -7.57966
rfingers 7.12502
rthumb -21.257 -36.434
lclavicle -1.98785e-014 -1.83876e-014
lhumerus -55.2237 -9.05371 78.76
lradius 52.1748
lwrist -0.695933
lhand -43.3978 -83.6015
lfingers 7.12502
lthumb -16.2414 -54.2618
rfemur -94.1178 7.04514 31.7044
rtibia 62.3113
rfoot -14.7468 15.6884
rtoes -12.2653
lfemur -99.5294 9.19073 -8.36063
ltibia 69.6312
lfoot -14.9595 1.1408
ltoes -22.5799
211
root 3.64562 13.9511 15.0141 50.9754 -12.7459 -12.853
lowerback 24.4004 2.25809 4.76901
upperback 1.84613 4.42528 2.31124
thorax -11.4074 1.83175 -1.60087
lowerneck 13.8905 -9.39368 -28.6865
upperneck -29.7502 -11.8849 48.602
head -4.57805 -9.16697 32.6573
rclavicle -4.07509e-014 6.14245e-014
rhumerus -33.1853 -1.0402 -80.0958
rradius 18.2106
rwrist 20.7471
rhand -50.0108 -8.4398
rfingers 7.12502
rthumb -22.5994 -37.1369
lclavicle -4.07509e-014 6.14245e-014
lhumerus -55.6863 -7.76343 77.6349
lradius 53.038
lwrist -2.2489
lhand -43.0244 -84.6441
lfingers 7.12502
lthumb -15.8819 -55.2754
rfemur -94.7264 7.30498 31.6805
rtibia 62.9485
rfoot -14.7259 15.8215
rtoes -12.0977
lfemur -100.142 9.50027 -8.42513
ltibia 70.424
lfoot -15.0623 1.29028
ltoes -22.4149
212
root 3.6712 13.8857 14.9663 51.0134 -13.1057 -13.066
lowerback 24.5641 2.27129 4.66791
upperback 1.84907 4.41637 2.24981
thorax -11.4955 1.82688 -1.61719
lowerneck 13.7057 -9.35314 -28.7043
upperneck -29.8193 -11.7846 48.5616
head -4.61724 -9.0902 32.6542
rclavicle 2.26615e-014 -1.54058e-014
rhumerus -33.4137 -0.814583 -80.4415
rradius 18.8916
rwrist 19.6599
rhand -51.1901 -9.94785
rfingers 7.12502
rthumb -23.731 -38.5027
lclavicle 2.26615e-014 -1.54058e-014
lhumerus -56.1875 -6.55003 76.5058
lradius 53.961
lwrist -3.79996
lhand -42.6756 -85.4806
lfingers 7.12502
lthumb -15.546 -56.0855
rfemur -95.3188 7.5395 31.6918
rtibia 63.5767
rfoot -14.6924 15.9799
rtoes -11.9255
lfemur -100.74 9.79676 -8.47373
ltibia 71.2051
lfoot -15.1464 1.44216
ltoes -22.3138
213
root 3.69766 13.821 14.9192 51.0402 -13.4689 -13.2659
lowerback 24.7338 2.28632 4.59806
upperback 1.83648 4.4168 2.16792
thorax -11.5999 1.82343 -1.67793
lowerneck 13.5853 -9.31489 -28.7154
upperneck -29.9062 -11.6998 48.5294
head -4.67 -9.02673 32.6773
rclavicle 6.71892e-014 -2.54444e-014
rhumerus -33.721 -0.564503 -80.7941
rradius 19.7038
rwrist 18.8208
rhand -52.193 -12.1631
rfingers 7.12502
rthumb -24.6925 -40.5898
lclavicle 6.71892e-014 -2.54444e-014
lhumerus -56.7134 -5.45442 75.4052
lradius 54.9257
lwrist -5.31936
lhand -42.364 -86.1143
lfingers 7.12502
lthumb -15.2458 -56.6961
rfemur -95.8981 7.7475 31.7125
rtibia 64.1953
rfoot -14.6461 16.1616
rtoes -11.7584
lfemur -101.32 10.0773 -8.53278
ltibia 71.9677
lfoot -15.215 1.59556
ltoes -22.2781
214
root 3.72476 13.757 14.8726 51.0532 -13.8254 -13.4561
lowerback 24.9141 2.30319 4.57803
upperback 1.80904 4.43143 2.06219
thorax -11.7204 1.82241 -1.79941
lowerneck 13.5364 -9.28358 -28.7143
upperneck -30.0164 -11.6364 48.5092
head -4.73638 -8.98156 32.7278
rclavicle -1.35174e-014 3.97569e-016
rhumerus -34.1069 -0.329784 -81.1478
rradius 20.646
rwrist 18.176
rhand -53.06 -14.9844
rfingers 7.12502
rthumb -25.5232 -43.2948
lclavicle -1.35174e-014 3.97569e-016
lhumerus -57.2467 -4.54074 74.3699
lradius 55.9138
lwrist -6.75278
lhand -42.1072 -86.6278
lfingers 7.12502
lthumb -14.9985 -57.1909
rfemur -96.4592 7.92892 31.7505
rtibia 64.8038
rfoot -14.5931 16.3556
rtoes -11.6249
lfemur -101.879 10.3425 -8.59555
ltibia 72.7095
lfoot -15.2673 1.74155
ltoes -22.2816
215
root 3.75224 13.6937 14.8266 51.0506 -14.1741 -13.6347
lowerback 25.1047 2.32359 4.60618
upperback 1.76538 4.46263 1.93535
thorax -11.8586 1.82481 -1.97882
lowerneck 13.567 -9.25607 -28.7082
upperneck -30.1517 -11.5943 48.497
head -4.81936 -8.95313 32.8089
rclavicle -7.87187e-014 -9.54166e-015
rhumerus -34.5804 -0.113906 -81.5017
rradius 21.7232
rwrist 17.6127
rhand -53.8192 -18.2622
rfingers 7.12502
rthumb -26.2503 -46.4665
lclavicle -7.87187e-014 -9.54166e-015
lhumerus -57.7692 -3.8346 73.4289
lradius 56.8966
lwrist -8.06397
lhand -41.8874 -87.0851
lfingers 7.12502
lthumb -14.7867 -57.6327
rfemur -97.0002 8.08549 31.8016
rtibia 65.4015
rfoot -14.5372 16.5505
rtoes -11.523
lfemur -102.416 10.5933 -8.66654
ltibia 73.4271
lfoot -15.3082 1.87417
ltoes -22.2852
216
root 3.77982 13.6324 14.7809 51.0121 -14.5243 -13.7814
lowerback 25.3173 2.33701 4.63497
upperback 1.72609 4.48393 1.79436
thorax -12.0028 1.82161 -2.17283
lowerneck 13.6068 -9.23726 -28.6966
upperneck -30.2919 -11.5674 48.4915
head -4.89852 -8.93496 32.8996
rclavicle -6.75868e-015 1.53064e-014
rhumerus -35.0869 0.11076 -81.863
rradius 22.9045
rwrist 17.0171
rhand -54.5073 -21.715
rfingers 7.12502
rthumb -26.9088 -49.8195
lclavicle -6.75868e-015 1.53064e-014
lhumerus -58.2522 -3.2923 72.5902
lradius 57.8499
lwrist -9.22202
lhand -41.6979 -87.5551
lfingers 7.12502
lthumb -14.6041 -58.0893
rfemur -97.5056 8.2081 31.8396
rtibia 65.9878
rfoot -14.483 16.7292
rtoes -11.4677
lfemur -102.908 10.8166 -8.76634
ltibia 74.1128
lfoot -15.3419 1.99582
ltoes -22.3018
217
root 3.80721 13.5729 14.7354 50.9365 -14.8604 -13.9066
lowerback 25.5525 2.33603 4.6687
upperback 1.69662 4.48729 1.64559
thorax -12.1479 1.80933 -2.37389
lowerneck 13.6271 -9.22725 -28.668
upperneck -30.4246 -11.5471 48.4857
head -4.97085 -8.92076 32.9853
rclavicle -6.12257e-014 1.45113e-014
rhumerus -35.6062 0.346532 -82.2401
rradius 24.1545
rwrist 16.3019
rhand -55.1662 -25.074
rfingers 7.12502
rthumb -27.5391 -53.0797
lclavicle -6.12257e-014 1.45113e-014
lhumerus -58.6885 -2.90373 71.8549
lradius 58.7571
lwrist -10.1905
lhand -41.5375 -88.0851
lfingers 7.12502
lthumb -14.4496 -58.6082
rfemur -97.9685 8.30032 31.8785
rtibia 66.563
rfoot -14.4384 16.8758
rtoes -11.4672
lfemur -103.356 11.0176 -8.87985
ltibia 74.7673
lfoot -15.3745 2.09309
ltoes -22.2854
218
root 3.83423 13.5159 14.6904 50.8137 -15.1968 -13.9947
lowerback 25.8125 2.32131 4.67655
upperback 1.68004 4.46466 1.48801
thorax -12.2944 1.78603 -2.5629
lowerneck 13.617 -9.22307 -28.6236
upperneck -30.5444 -11.5239 48.4866
head -5.0324 -8.90703 33.0538
rclavicle -3.37934e-014 -6.55989e-015
rhumerus -36.1277 0.587846 -82.6252
rradius 25.4469
rwrist 15.379
rhand -55.7682 -27.9417
rfingers 7.12502
rthumb -28.1147 -55.8543
lclavicle -3.37934e-014 -6.55989e-015
lhumerus -59.0815 -2.64809 71.2176
lradius 59.6105
lwrist -10.9704
lhand -41.4325 -88.6557
lfingers 7.12502
lthumb -14.3484 -59.1715
rfemur -98.383 8.35949 31.8904
rtibia 67.1295
rfoot -14.4112 16.9832
rtoes -11.5287
lfemur -103.745 11.1905 -9.02804
ltibia 75.3885
lfoot -15.4155 2.16741
ltoes -22.1988
219
root 3.86094 13.4603 14.6454 50.6599 -15.5379 -14.0485
lowerback 26.0773 2.29744 4.65235
upperback 1.67209 4.41987 1.32729
thorax -12.4373 1.75441 -2.73012
lowerneck 13.5808 -9.22181 -28.579
upperneck -30.6524 -11.4997 48.4915
head -5.08224 -8.89298 33.1104
rclavicle 2.94201e-014 5.1684e-015
rhumerus -36.6523 0.8271 -82.9957
rradius 26.7457
rwrist 14.2632
rhand -56.3271 -30.1198
rfingers 7.12502
rthumb -28.6488 -57.9434
lclavicle 2.94201e-014 5.1684e-015
lhumerus -59.4398 -2.50608 70.6789
lradius 60.4063
lwrist -11.5627
lhand -41.3931 -89.2496
lfingers 7.12502
lthumb -14.3105 -59.7628
rfemur -98.7729 8.39403 31.8694
rtibia 67.6913
rfoot -14.405 17.0525
rtoes -11.6729
lfemur -104.101 11.3436 -9.21348
ltibia 75.9795
lfoot -15.467 2.22283
ltoes -22.071
220
root 3.88753 13.4053 14.6002 50.4877 -15.8922 -14.0743
lowerback 26.3342 2.27165 4.59377
upperback 1.67397 4.36032 1.16191
thorax -12.5679 1.71842 -2.87753
lowerneck 13.5106 -9.22698 -28.5403
upperneck -30.7498 -11.4802 48.5073
head -5.11345 -8.88208 33.1615
rclavicle 2.54444e-014 1.27222e-014
rhumerus -37.1775 1.04977 -83.3355
rradius 28.0418
rwrist 13.0199
rhand -56.8118 -31.4949
rfingers 7.12502
rthumb -29.1118 -59.2393
lclavicle 2.54444e-014 1.27222e-014
lhumerus -59.7571 -2.4638 70.2297
lradius 61.1439
lwrist -11.9773
lhand -41.4101 -89.8168
lfingers 7.12502
lthumb -14.3268 -60.3311
rfemur -99.1548 8.41508 31.8119
rtibia 68.2519
rfoot -14.4312 17.0797
rtoes -11.9554
lfemur -104.441 11.4885 -9.44041
ltibia 76.5448
lfoot -15.5192 2.25893
ltoes -21.8981
221
root 3.91357 13.3535 14.5554 50.258 -16.251 -14.0512
lowerback 26.6179 2.23753 4.49675
upperback 1.68939 4.27864 0.997972
thorax -12.7019 1.67452 -2.99485
lowerneck 13.4265 -9.23169 -28.5132
upperneck -30.8449 -11.4608 48.5223
head -5.13858 -8.86948 33.2096
rclavicle 1.43125e-014 2.32578e-014
rhumerus -37.7222 1.26083 -83.6234
rradius 29.336
rwrist 11.7677
rhand -57.2006 -32.1074
rfingers 7.12502
rthumb -29.483 -59.787
lclavicle 1.43125e-014 2.32578e-014
lhumerus -60.0517 -2.50654 69.868
lradius 61.8303
lwrist -12.1978
lhand -41.4658 -269.595
lfingers 7.12502
lthumb -14.3804 -60.9235
rfemur -99.4838 8.40234 31.7084
rtibia 68.8091
rfoot -14.5205 17.0386
rtoes -12.4383
lfemur -104.712 11.6019 -9.71514
ltibia 77.0736
lfoot -15.5833 2.28356
ltoes -21.7478
222
root 3.93909 13.3043 14.511 49.9732 -16.6128 -13.987
lowerback 26.9256 2.19586 4.36577
upperback 1.71939 4.17637 0.834515
thorax -12.8359 1.62338 -3.0857
lowerneck 13.3243 -9.23708 -28.4917
upperneck -30.9348 -11.4405 48.539
head -5.15638 -8.85555 33.2533
rclavicle -3.97569e-014 -1.98785e-015
rhumerus -38.2931 1.46756 -83.8559
rradius 30.6265
rwrist 10.659
rhand -57.5115 -32.1764
rfingers 7.12502
rthumb -29.7797 -59.8034
lclavicle -3.97569e-014 -1.98785e-015
lhumerus -60.3327 -2.6195 69.5751
lradius 62.4713
lwrist -12.254
lhand -41.576 -268.913
lfingers 7.12502
lthumb -14.4867 -61.6131
rfemur -99.7646 8.36218 31.5692
rtibia 69.3682
rfoot -14.6673 16.9181
rtoes -13.1248
lfemur -104.921 11.692 -10.0326
ltibia 77.5718
lfoot -15.6523 2.30494
ltoes -21.7409
223
root 3.96432 13.2562 14.467 49.6505 -16.9848 -13.8861
lowerback 27.239 2.15664 4.21239
upperback 1.75266 4.06886 0.668082
thorax -12.9707 1.57118 -3.16527
lowerneck 13.2434 -9.23813 -28.4821
upperneck -31.0318 -11.4226 48.5493
head -5.18137 -8.84074 33.3061
rclavicle 4.77083e-015 -1.66979e-014
rhumerus -38.9277 1.66886 -84.0197
rradius 31.9366
rwrist 9.82345
rhand -57.7339 -32.0046
rfingers 7.12502
rthumb -29.992 -59.5933
lclavicle 4.77083e-015 -1.66979e-014
lhumerus -60.6188 -2.81095 69.3462
lradius 63.0809
lwrist -12.1779
lhand -41.7452 -268.091
lfingers 7.12502
lthumb -14.6497 -62.4467
rfemur -100.021 8.30589 31.3908
rtibia 69.9352
rfoot -14.8804 16.7082
rtoes -14.0636
lfemur -105.092 11.7685 -10.3948
ltibia 78.05
lfoot -15.717 2.32474
ltoes -21.8544
